PathFileType	4	(X/Y/Z)	Patient3_R_AnkleIso_Processed.trc
DataRate	CameraRate	NumFrames	NumMarkers	Units	OrigDataRate	OrigDataStartFrame	OrigNumFrames
100.000000000000	100.000000000000	7	33	mm	100.000000000000	38	       301
Frame#	Time	L.Toe			R.Toe			R.Shoulder			L.Heel			Neck			R.Heel			L.Shank.Lateral			R.Shank.Lateral			L.Midfoot.Superior			L.Elbow			R.Midfoot.Lateral			R.Midfoot.Superior			L.Shoulder			R.Thigh.Lateral			R.Elbow			Sacral			L.Thigh.Superior			R.Patella			R.Wrist			R.Shank.Superior			L.Wrist			R.Shank.Inferior			R.Thigh.Superior			R.Thigh.Inferior			L.Asis			L.Shank.Inferior			L.Midfoot.Lateral			Sternum			L.Shank.Superior			R.Asis			L.Patella			L.Thigh.Lateral			L.Thigh.Inferior			
		X1	Y1	Z1	X2	Y2	Z2	X3	Y3	Z3	X4	Y4	Z4	X5	Y5	Z5	X6	Y6	Z6	X7	Y7	Z7	X8	Y8	Z8	X9	Y9	Z9	X10	Y10	Z10	X11	Y11	Z11	X12	Y12	Z12	X13	Y13	Z13	X14	Y14	Z14	X15	Y15	Z15	X16	Y16	Z16	X17	Y17	Z17	X18	Y18	Z18	X19	Y19	Z19	X20	Y20	Z20	X21	Y21	Z21	X22	Y22	Z22	X23	Y23	Z23	X24	Y24	Z24	X25	Y25	Z25	X26	Y26	Z26	X27	Y27	Z27	X28	Y28	Z28	X29	Y29	Z29	X30	Y30	Z30	X31	Y31	Z31	X32	Y32	Z32	X33	Y33	Z33	

38	0.870000000000	705.476251464799	42.466830617158	376.833113427505	1084.980189539871	107.420599950280	631.308719784487	471.712094745831	1447.303542106103	505.797194794209	414.793540181403	33.326803056383	427.052062633024	441.755318439328	1466.752268359054	357.149784515528	789.379209309630	142.259578855269	649.979843418011	481.242150403211	325.038586798934	292.410295549870	736.617143624184	422.844748357488	681.082727231927	585.893624110721	90.023582634474	390.276384771364	375.473408586424	1115.257657274811	95.015929954311	881.215856436873	128.476151660997	699.478529591780	967.972085324667	174.571976481072	639.167288668794	488.702815319567	1428.103011653217	215.686125400005	633.488827746741	721.136317747606	627.743788461560	550.062828268681	1139.708650438881	653.874583215641	417.436222839546	970.410366309073	377.382233642448	663.661717713857	736.875600100268	300.015095461119	774.242103925436	593.030777544510	582.456701644019	650.499880982354	1265.854737553490	462.218501289407	793.794547926803	488.529859364179	620.818918668979	548.350166857327	999.153762167645	-57.669150515912	856.785073213503	324.095584712520	641.518280150964	691.146428958948	791.466861273673	560.277144333837	730.459751021736	685.789274053754	566.306789801122	616.247741929585	966.478262861899	274.864992077146	549.885431070939	229.835850169551	363.689088889832	490.434793791992	27.267158448405	359.406516154127	581.418516666674	1374.238358626392	375.251408879072	573.840436525138	381.475520308943	331.550448978354	559.487741861919	993.137395281805	530.344573176995	618.095369089838	489.745341964886	342.766932836894	564.637362077257	656.485875240856	255.069574530796	643.534303486097	607.695780753055	320.559269888072	
39	0.880000000000	705.476817650987	42.466679245381	376.836743462046	1084.762005477735	107.111456470275	628.664081989601	471.794670837961	1447.322390887340	505.838736110471	414.792650752597	33.324987104017	427.050521135139	441.846480506095	1466.780766590972	357.190555039229	789.556532043724	142.551231457129	651.036701991855	481.238106351038	325.049876112798	292.418614857621	736.846273750494	423.103106846906	681.405630273382	585.894614524838	90.026461061200	390.276155300084	375.533926791530	1115.296060134962	95.036368694147	881.895920305376	128.108470163426	699.376405233946	968.079181269178	174.506316284553	638.498361143779	488.796098225136	1428.117614060585	215.732377211383	633.543982659952	721.233886112506	627.847922379623	550.029696970585	1139.710031394254	653.924100139550	417.377408836194	970.473890568369	377.460024841763	663.640685561676	736.887884859699	300.053172049229	774.315794082639	593.146702118328	582.551638296125	650.524720489045	1265.822176328503	462.280536518871	793.942118980764	488.657574088193	620.906856824225	548.447295719274	999.223579298504	-57.628731239576	856.927196684290	324.231285770653	641.702767694805	691.178466334113	791.552922380591	560.359821785114	730.515344842009	685.890125801569	566.408662455573	616.209225469932	966.486450158007	274.915805139924	549.885721982330	229.835984985622	363.692327545650	490.435686407906	27.266545443445	359.405995398114	581.479446749969	1374.225406038097	375.306928479132	573.849489127617	381.471951699103	331.568780395047	559.477327250158	993.173345964041	530.392694494202	618.112963395216	489.751855891578	342.795214167242	564.623075236268	656.491500128815	255.106983169917	643.529482389457	607.706910315770	320.587987929285	
40	0.890000000000	705.477512191469	42.466191584293	376.840412415717	1084.536699663033	106.866531663046	625.850024592932	471.869438192408	1447.339152257982	505.880081635301	414.791891734514	33.323240345405	427.049260839055	441.931190395968	1466.807522358920	357.230629404795	789.766257233780	142.817508967265	652.120149601502	481.235285481165	325.061458648324	292.430262274971	737.094523956539	423.369761552665	681.735606108473	585.895910967880	90.029154041842	390.276142393589	375.592311223009	1115.333223173999	95.054426575729	882.630263180354	127.712688920564	699.233007646608	968.190739434599	174.461371745778	637.767669267714	488.884175517310	1428.131382276663	215.778229755038	633.609792645149	721.331894685978	627.952108398808	549.993521737923	1139.709416379603	653.972002461709	417.325403086156	970.541263671072	377.549020351830	663.620380079700	736.900768806356	300.092390651024	774.395758565474	593.261727169293	582.639793133258	650.545064624336	1265.789929001669	462.342969951473	794.100879495896	488.783469742849	620.984274974656	548.543085805106	999.294942964883	-57.592137969346	857.081114933699	324.367114007375	641.875964565313	691.217226675055	791.638215015846	560.439292547085	730.577094395932	685.989721990204	566.506011428130	616.170035861503	966.495507369094	274.968262978445	549.887130938125	229.836007230290	363.698007213298	490.436496147274	27.265792270306	359.405852419657	581.534547905237	1374.212328110295	375.362629641074	573.859467239987	381.468562800103	331.590107617559	559.470933431469	993.210266178529	530.443645414158	618.131566475294	489.758110864698	342.825866000780	564.608609535869	656.497567056947	255.148408652278	643.522685573537	607.715920812877	320.617593609079	
41	0.900000000000	705.478375647485	42.465309605104	376.844038309379	1084.308433613951	106.692878601405	622.902191731001	471.936491421954	1447.353941573340	505.921378044935	414.791294877390	33.321635855807	427.048273969373	442.009402580052	1466.832437143421	357.270129008787	790.009036325531	143.054339166825	653.211660103561	481.234015314868	325.073345642796	292.445683687610	737.360134298124	423.640672143234	682.066335529878	585.897569647212	90.031619505567	390.276371998600	375.648463799536	1115.369170354746	95.070159563133	883.411816569388	127.294927079724	699.046102181921	968.307468437712	174.439765274098	636.982635830421	488.967100889387	1428.144347341258	215.823839778050	633.686217621521	721.429304115105	628.055058305167	549.954685269232	1139.706930151691	654.018596153852	417.282508431678	970.611244856249	377.650135017578	663.601139131773	736.914222098745	300.132832743677	774.481852004910	593.374913794807	582.719188174817	650.561185327818	1265.758281393659	462.405909484137	794.269983565929	488.906418354358	621.049168730226	548.637113314344	999.367344534704	-57.559279132009	857.246875071830	324.501902562518	642.033774807269	691.262601214748	791.722002789772	560.514126463153	730.644797320350	686.087196801464	566.596833846277	616.130512544863	966.505471483818	275.022556132206	549.889799439636	229.835978473847	363.706463845083	490.437239817381	27.264962745601	359.406028957387	581.584028713579	1374.199326064793	375.418629229839	573.870444783459	381.465627411728	331.614745006023	559.468937607003	993.247784875117	530.497730499423	618.150927159580	489.764122813119	342.859286631403	564.593999741273	656.504186019045	255.194298787390	643.514421800321	607.722973720397	320.648456390170	
42	0.910000000000	705.479451096033	42.463973382606	376.847530285504	1084.081665434155	106.594711765198	619.858937564905	471.996027937244	1447.366938105852	505.962812883688	414.790885711794	33.320237663512	427.047545161468	442.081110713428	1466.855453929731	357.309251283603	790.284808229052	143.259081395747	654.292093419538	481.234658553603	325.085511501827	292.465282090643	737.641048013942	423.911535397494	682.390854836394	585.899635255005	90.033815899797	390.276884520764	375.702299046406	1115.403916958865	95.083721056340	884.232518943379	126.861998092520	698.814090008328	968.430375079064	174.443226710804	636.151503732251	489.044908025800	1428.156546998703	215.869419170597	633.773080557080	721.525124288348	628.155382903978	549.913721526918	1139.702812018252	654.064307292447	417.250538132779	970.682381771284	377.763753134115	663.583267879234	736.928218960412	300.174825535699	774.574055854969	593.485560006173	582.787874041711	650.573403934416	1265.727567090454	462.469476348379	794.448649002953	489.025536121553	621.099598551066	548.728954847501	999.440228652329	-57.529935962642	857.424605807874	324.634641862653	642.172131726889	691.314398135040	791.803755295246	560.582982930178	730.718290787656	686.181927843033	566.679168143919	616.090980463750	966.516350038722	275.078897265106	549.893869939767	229.835976296791	363.718052931015	490.437946007438	27.264142585584	359.406452400788	581.628133220334	1374.186623559792	375.475066965029	573.882509473690	381.463456316612	331.643026622907	559.471525584543	993.285533657457	530.555225373548	618.170745930465	489.769946281178	342.895965035593	564.579354128760	656.511461463087	255.245053720005	643.505341792255	607.728400739294	320.681201664532	
43	0.920000000000	705.480782087169	42.462126103524	376.850793037724	1083.860981089468	106.573340239124	616.759392762995	472.048332383842	1447.378366199250	506.004617162924	414.790682033857	33.319097318184	427.047051728502	442.146347532180	1466.876553233249	357.348268123792	790.592860145104	143.430589865539	655.342610332897	481.237582445324	325.097895575033	292.489372922176	737.935013432541	424.177966791149	682.701839136541	585.902136919583	90.035706895134	390.277728985297	375.753745477974	1115.437457890989	95.095380949013	885.083772614707	126.421089686053	698.536070381764	968.560735623934	174.472556313402	635.282866515023	489.117615196079	1428.168019549985	215.915229384853	633.870066136117	721.618431812783	628.251650193132	549.871315034220	1139.697406062832	654.109671061579	417.230594340086	970.753118340613	377.889632793222	663.567018407366	736.942737866541	300.218951455750	774.672473303856	593.593218779833	582.844014890721	650.582088239711	1265.698166539160	462.533805885609	794.636191894754	489.140206219521	621.133757542816	548.818188531506	999.512995270528	-57.503754132131	857.614528303015	324.764513601291	642.287153216872	691.372351202792	791.883154703045	560.644690337648	730.797455028553	686.273548536626	566.751193030512	616.051749043406	966.528124968204	275.137522548581	549.899470945237	229.836091202739	363.733108783519	490.438651604047	27.263429104456	359.407040912463	581.667129287225	1374.174455848910	375.532106125823	573.895753349496	381.462375021365	331.675269311637	559.478683747278	993.323146395629	530.616373562713	618.190691888482	489.775667484371	342.936437911213	564.564861135688	656.519487892324	255.300991945578	643.496139717819	607.732645757557	320.716674738786	
44	0.930000000000	705.482409621743	42.459718855877	376.853732866280	1083.650898445205	106.627297388174	613.641472738695	472.093757817445	1447.388476222250	506.047064599590	414.790693253528	33.318250996941	427.046764989455	442.205182778535	1466.895747433676	357.387518143872	790.931942330454	143.569178279061	656.345593071359	481.243124936051	325.110407833546	292.518141384753	738.239727968804	424.435716869885	682.991955180493	585.905085016377	90.037265921857	390.278955760215	375.802745095756	1115.469757063070	95.105540098234	885.956944394706	125.979435021351	698.211877099106	968.700041968957	174.527653192070	634.385174684124	489.185231205026	1428.178797320842	215.961572459192	633.976721923383	721.708379125958	628.342451821194	549.828278257903	1139.691146551474	654.155312580788	417.222922267689	970.821912570144	378.026884415385	663.552572933830	736.957761159115	300.266015031819	774.777312351010	593.697697955693	582.885965448729	650.587646616570	1265.670499862109	462.599046382355	794.832054846184	489.250086126747	621.150029572909	548.904394521023	999.585002821599	-57.480239464597	857.816963071600	324.890911154029	642.375284479305	691.436125852728	791.960082408384	560.698314840841	730.882210438518	686.361941541083	566.811323368258	616.013104646159	966.540758958053	275.198684522855	549.906701078199	229.836421174850	363.751899911690	490.439398129523	27.262919989424	359.407708789710	581.701296265618	1374.163057684586	375.589931691450	573.910262114204	381.462697530797	331.711729963665	559.490206351300	993.360257074739	530.681379980121	618.210424369107	489.781394374231	342.981232853460	564.550784178792	656.528345340095	255.362315295497	643.487462314273	607.736205721811	320.755871418621	
